<svg width="60" height="49" viewBox="0 0 60 49" fill="none" xmlns="http://www.w3.org/2000/svg">
<path d="M41.25 9.375C41.25 8.86719 41.4355 8.42773 41.8066 8.05664C42.1777 7.68555 42.6172 7.5 43.125 7.5C43.6328 7.5 44.0723 7.68555 44.4434 8.05664C44.8145 8.42773 45 8.86719 45 9.375C45 9.88281 44.8145 10.3223 44.4434 10.6934C44.0723 11.0645 43.6328 11.25 43.125 11.25C42.6172 11.25 42.1777 11.0645 41.8066 10.6934C41.4355 10.3223 41.25 9.88281 41.25 9.375ZM60 37.5V41.25H52.5V48.75H48.75V41.25H41.25V37.5H48.75V30H52.5V37.5H60ZM27.0117 28.125L37.5 38.584V41.25H0V0H52.5V26.25H48.75V3.75H3.75V16.084L9.375 10.4883L24.375 25.4883L31.875 17.9883L45 31.084V33.75H42.334L31.875 23.2617L27.0117 28.125ZM9.375 15.7617L3.75 21.416V37.5H31.084L9.375 15.7617Z" fill="#989898"/>
</svg>
