<svg width="40" height="39" viewBox="0 0 40 39" fill="none" xmlns="http://www.w3.org/2000/svg">
<g clip-path="url(#clip0_237_62)">
<path d="M19.9999 18.2467C21.5382 18.2467 23.042 17.8133 24.321 17.0014C25.6001 16.1895 26.597 15.0355 27.1857 13.6854C27.7744 12.3352 27.9284 10.8496 27.6283 9.41628C27.3282 7.98297 26.5874 6.6664 25.4997 5.63305C24.4119 4.59969 23.0261 3.89597 21.5173 3.61087C20.0086 3.32576 18.4447 3.47209 17.0235 4.03134C15.6023 4.59058 14.3876 5.53764 13.533 6.75273C12.6783 7.96783 12.2222 9.3964 12.2222 10.8578C12.2222 12.8174 13.0416 14.6968 14.5002 16.0825C15.9588 17.4682 17.9372 18.2467 19.9999 18.2467ZM19.9999 5.58C21.0987 5.58 22.1728 5.88954 23.0864 6.46947C24.0001 7.0494 24.7121 7.87367 25.1326 8.83806C25.5531 9.80245 25.6631 10.8636 25.4488 11.8874C25.2344 12.9112 24.7053 13.8516 23.9283 14.5897C23.1514 15.3278 22.1615 15.8305 21.0838 16.0341C20.0061 16.2378 18.8891 16.1333 17.8739 15.7338C16.8588 15.3343 15.9911 14.6579 15.3807 13.79C14.7702 12.922 14.4444 11.9016 14.4444 10.8578C14.4444 9.45803 15.0297 8.1156 16.0716 7.12583C17.1134 6.13605 18.5265 5.58 19.9999 5.58Z" fill="black"/>
<path d="M33.8557 26.0261C32.0738 24.237 29.9265 22.8118 27.5452 21.8379C25.1638 20.8639 22.5983 20.3616 20.0057 20.3616C17.413 20.3616 14.8475 20.8639 12.4662 21.8379C10.0848 22.8118 7.93755 24.237 6.15567 26.0261C5.76935 26.4181 5.55479 26.9352 5.55567 27.4722V33.0244C5.55567 33.5843 5.78979 34.1213 6.20654 34.5172C6.62329 34.9131 7.18852 35.1355 7.77789 35.1355H32.2223C32.8117 35.1355 33.3769 34.9131 33.7937 34.5172C34.2104 34.1213 34.4446 33.5843 34.4446 33.0244V27.4722C34.4485 26.9367 34.2379 26.4197 33.8557 26.0261ZM32.2223 33.0244H7.77789V27.4617C9.35259 25.8864 11.2482 24.6321 13.3494 23.7749C15.4506 22.9177 17.7134 22.4757 20.0001 22.4757C22.2868 22.4757 24.5496 22.9177 26.6508 23.7749C28.752 24.6321 30.6476 25.8864 32.2223 27.4617V33.0244Z" fill="black"/>
</g>
<defs>
<clipPath id="clip0_237_62">
<rect width="40" height="38" fill="white" transform="translate(0 0.302216)"/>
</clipPath>
</defs>
</svg>
