<svg width="50" height="51" viewBox="0 0 50 51" fill="none" xmlns="http://www.w3.org/2000/svg">
<path d="M8.36875 37.2893C8.69312 37.6382 8.94167 38.0595 9.09669 38.5232C9.25172 38.9868 9.3094 39.4814 9.26562 39.9716C9.04546 42.2405 8.62909 44.4826 8.02187 46.669C12.3812 45.5874 15.0438 44.3349 16.2531 43.6786C16.9391 43.3063 17.729 43.2181 18.4719 43.4308C20.6009 44.0414 22.796 44.3477 25 44.3416C37.4875 44.3416 46.875 34.9419 46.875 24.2496C46.875 13.5573 37.4875 4.15756 25 4.15756C12.5125 4.15756 3.125 13.5606 3.125 24.2496C3.125 29.1655 5.05312 33.7263 8.36875 37.2893ZM6.82812 50.3659C6.08768 50.523 5.34487 50.667 4.6 50.7979C3.975 50.905 3.5 50.2085 3.74688 49.5857C4.02361 48.8841 4.27792 48.1727 4.50937 47.4526L4.51875 47.4191C5.29375 45.008 5.925 42.2353 6.15625 39.6535C2.32188 35.5346 0 30.1433 0 24.2496C0 11.3036 11.1937 0.808884 25 0.808884C38.8063 0.808884 50 11.3036 50 24.2496C50 37.1956 38.8063 47.6903 25 47.6903C22.5238 47.6962 20.0577 47.3517 17.6656 46.6656C16.0406 47.5463 12.5437 49.1503 6.82812 50.3659Z" fill="black"/>
</svg>
