<svg width="19" height="19" viewBox="0 0 19 19" fill="none" xmlns="http://www.w3.org/2000/svg">
<path fill-rule="evenodd" clip-rule="evenodd" d="M15.991 3.01L3.39901 7.563L7.59401 9.991L11.293 6.291C11.4806 6.10349 11.7351 5.9982 12.0004 5.9983C12.2656 5.99839 12.52 6.10386 12.7075 6.2915C12.895 6.47914 13.0003 6.73358 13.0002 6.99885C13.0001 7.26412 12.8946 7.51849 12.707 7.706L9.00701 11.406L11.437 15.6L15.991 3.01ZM16.314 0.765999C17.509 0.332999 18.667 1.491 18.234 2.686L12.952 17.291C12.518 18.489 10.882 18.635 10.243 17.532L7.02601 11.974L1.46801 8.757C0.365006 8.118 0.511006 6.482 1.70901 6.048L16.314 0.765999Z" fill="black"/>
</svg>
